
            <svg id="trend-chart" width="660" height="400" title="Stack Overflow Trends Chart" version="1.1" xmlns="http://www.w3.org/2000/svg"><g></g><g class="chart-area" transform="translate(100, 20)"><g transform="translate(0,300)" fill="none" font-size="10" font-family="sans-serif" text-anchor="middle"><path class="domain" stroke="#000" d="M0.5,6V0.5H410.5V6"></path><g class="tick" opacity="1" transform="translate(15.741867369125274,0)"><line stroke="#000" y2="6" x1="0.5" x2="0.5"></line><text fill="#000" y="9" x="0.5" dy="0.71em" style="font-size: 12px;">2009</text></g><g class="tick" opacity="1" transform="translate(53.28577103194514,0)"><line stroke="#000" y2="6" x1="0.5" x2="0.5"></line><text fill="#000" y="9" x="0.5" dy="0.71em" style="font-size: 12px;">2010</text></g><g class="tick" opacity="1" transform="translate(90.829674694765,0)"><line stroke="#000" y2="6" x1="0.5" x2="0.5"></line><text fill="#000" y="9" x="0.5" dy="0.71em" style="font-size: 12px;">2011</text></g><g class="tick" opacity="1" transform="translate(128.37357835758488,0)"><line stroke="#000" y2="6" x1="0.5" x2="0.5"></line><text fill="#000" y="9" x="0.5" dy="0.71em" style="font-size: 12px;">2012</text></g><g class="tick" opacity="1" transform="translate(166.02034203043988,0)"><line stroke="#000" y2="6" x1="0.5" x2="0.5"></line><text fill="#000" y="9" x="0.5" dy="0.71em" style="font-size: 12px;">2013</text></g><g class="tick" opacity="1" transform="translate(203.56424569325975,0)"><line stroke="#000" y2="6" x1="0.5" x2="0.5"></line><text fill="#000" y="9" x="0.5" dy="0.71em" style="font-size: 12px;">2014</text></g><g class="tick" opacity="1" transform="translate(241.1081493560796,0)"><line stroke="#000" y2="6" x1="0.5" x2="0.5"></line><text fill="#000" y="9" x="0.5" dy="0.71em" style="font-size: 12px;">2015</text></g><g class="tick" opacity="1" transform="translate(278.6520530188995,0)"><line stroke="#000" y2="6" x1="0.5" x2="0.5"></line><text fill="#000" y="9" x="0.5" dy="0.71em" style="font-size: 12px;">2016</text></g><g class="tick" opacity="1" transform="translate(316.29881669175444,0)"><line stroke="#000" y2="6" x1="0.5" x2="0.5"></line><text fill="#000" y="9" x="0.5" dy="0.71em" style="font-size: 12px;">2017</text></g><g class="tick" opacity="1" transform="translate(353.84272035457434,0)"><line stroke="#000" y2="6" x1="0.5" x2="0.5"></line><text fill="#000" y="9" x="0.5" dy="0.71em" style="font-size: 12px;">2018</text></g><g class="tick" opacity="1" transform="translate(391.38662401739424,0)"><line stroke="#000" y2="6" x1="0.5" x2="0.5"></line><text fill="#000" y="9" x="0.5" dy="0.71em" style="font-size: 12px;">2019</text></g></g><g class="grid-lines" transform="translate(0,300)" fill="none" font-size="10" font-family="sans-serif" text-anchor="middle"><path class="domain" stroke="#000" d="M0.5,-300V0.5H410.5V-300"></path><g class="tick" opacity="1" transform="translate(15.741867369125274,0)"><line stroke="#000" y2="-300" x1="0.5" x2="0.5" style="stroke: #ccc; fill: none;"></line></g><g class="tick" opacity="1" transform="translate(53.28577103194514,0)"><line stroke="#000" y2="-300" x1="0.5" x2="0.5" style="stroke: #ccc; fill: none;"></line></g><g class="tick" opacity="1" transform="translate(90.829674694765,0)"><line stroke="#000" y2="-300" x1="0.5" x2="0.5" style="stroke: #ccc; fill: none;"></line></g><g class="tick" opacity="1" transform="translate(128.37357835758488,0)"><line stroke="#000" y2="-300" x1="0.5" x2="0.5" style="stroke: #ccc; fill: none;"></line></g><g class="tick" opacity="1" transform="translate(166.02034203043988,0)"><line stroke="#000" y2="-300" x1="0.5" x2="0.5" style="stroke: #ccc; fill: none;"></line></g><g class="tick" opacity="1" transform="translate(203.56424569325975,0)"><line stroke="#000" y2="-300" x1="0.5" x2="0.5" style="stroke: #ccc; fill: none;"></line></g><g class="tick" opacity="1" transform="translate(241.1081493560796,0)"><line stroke="#000" y2="-300" x1="0.5" x2="0.5" style="stroke: #ccc; fill: none;"></line></g><g class="tick" opacity="1" transform="translate(278.6520530188995,0)"><line stroke="#000" y2="-300" x1="0.5" x2="0.5" style="stroke: #ccc; fill: none;"></line></g><g class="tick" opacity="1" transform="translate(316.29881669175444,0)"><line stroke="#000" y2="-300" x1="0.5" x2="0.5" style="stroke: #ccc; fill: none;"></line></g><g class="tick" opacity="1" transform="translate(353.84272035457434,0)"><line stroke="#000" y2="-300" x1="0.5" x2="0.5" style="stroke: #ccc; fill: none;"></line></g><g class="tick" opacity="1" transform="translate(391.38662401739424,0)"><line stroke="#000" y2="-300" x1="0.5" x2="0.5" style="stroke: #ccc; fill: none;"></line></g></g><text x="205" y="360" class="axis-label x-axis-label" style="text-anchor: middle; font-weight: bold;">Year</text><g fill="none" font-size="10" font-family="sans-serif" text-anchor="end"><path class="domain" stroke="#000" d="M-6,300.5H0.5V0.5H-6"></path><g class="tick" opacity="1" transform="translate(0,300)"><line stroke="#000" x2="-6" y1="0.5" y2="0.5"></line><text fill="#000" x="-9" y="0.5" dy="0.32em" style="font-size: 12px;">0.00%</text></g><g class="tick" opacity="1" transform="translate(0,276.9230769230769)"><line stroke="#000" x2="-6" y1="0.5" y2="0.5"></line><text fill="#000" x="-9" y="0.5" dy="0.32em" style="font-size: 12px;">1.00%</text></g><g class="tick" opacity="1" transform="translate(0,253.84615384615384)"><line stroke="#000" x2="-6" y1="0.5" y2="0.5"></line><text fill="#000" x="-9" y="0.5" dy="0.32em" style="font-size: 12px;">2.00%</text></g><g class="tick" opacity="1" transform="translate(0,230.76923076923077)"><line stroke="#000" x2="-6" y1="0.5" y2="0.5"></line><text fill="#000" x="-9" y="0.5" dy="0.32em" style="font-size: 12px;">3.00%</text></g><g class="tick" opacity="1" transform="translate(0,207.69230769230768)"><line stroke="#000" x2="-6" y1="0.5" y2="0.5"></line><text fill="#000" x="-9" y="0.5" dy="0.32em" style="font-size: 12px;">4.00%</text></g><g class="tick" opacity="1" transform="translate(0,184.6153846153846)"><line stroke="#000" x2="-6" y1="0.5" y2="0.5"></line><text fill="#000" x="-9" y="0.5" dy="0.32em" style="font-size: 12px;">5.00%</text></g><g class="tick" opacity="1" transform="translate(0,161.53846153846155)"><line stroke="#000" x2="-6" y1="0.5" y2="0.5"></line><text fill="#000" x="-9" y="0.5" dy="0.32em" style="font-size: 12px;">6.00%</text></g><g class="tick" opacity="1" transform="translate(0,138.46153846153842)"><line stroke="#000" x2="-6" y1="0.5" y2="0.5"></line><text fill="#000" x="-9" y="0.5" dy="0.32em" style="font-size: 12px;">7.00%</text></g><g class="tick" opacity="1" transform="translate(0,115.38461538461539)"><line stroke="#000" x2="-6" y1="0.5" y2="0.5"></line><text fill="#000" x="-9" y="0.5" dy="0.32em" style="font-size: 12px;">8.00%</text></g><g class="tick" opacity="1" transform="translate(0,92.30769230769232)"><line stroke="#000" x2="-6" y1="0.5" y2="0.5"></line><text fill="#000" x="-9" y="0.5" dy="0.32em" style="font-size: 12px;">9.00%</text></g><g class="tick" opacity="1" transform="translate(0,69.23076923076923)"><line stroke="#000" x2="-6" y1="0.5" y2="0.5"></line><text fill="#000" x="-9" y="0.5" dy="0.32em" style="font-size: 12px;">10.00%</text></g><g class="tick" opacity="1" transform="translate(0,46.15384615384616)"><line stroke="#000" x2="-6" y1="0.5" y2="0.5"></line><text fill="#000" x="-9" y="0.5" dy="0.32em" style="font-size: 12px;">11.00%</text></g><g class="tick" opacity="1" transform="translate(0,23.076923076923094)"><line stroke="#000" x2="-6" y1="0.5" y2="0.5"></line><text fill="#000" x="-9" y="0.5" dy="0.32em" style="font-size: 12px;">12.00%</text></g><g class="tick" opacity="1" transform="translate(0,0)"><line stroke="#000" x2="-6" y1="0.5" y2="0.5"></line><text fill="#000" x="-9" y="0.5" dy="0.32em" style="font-size: 12px;">13.00%</text></g></g><g class="grid-lines" fill="none" font-size="10" font-family="sans-serif" text-anchor="end"><path class="domain" stroke="#000" d="M410,300.5H0.5V0.5H410"></path><g class="tick" opacity="1" transform="translate(0,300)"><line stroke="#000" x2="410" y1="0.5" y2="0.5" style="stroke: #ccc; fill: none;"></line></g><g class="tick" opacity="1" transform="translate(0,276.9230769230769)"><line stroke="#000" x2="410" y1="0.5" y2="0.5" style="stroke: #ccc; fill: none;"></line></g><g class="tick" opacity="1" transform="translate(0,253.84615384615384)"><line stroke="#000" x2="410" y1="0.5" y2="0.5" style="stroke: #ccc; fill: none;"></line></g><g class="tick" opacity="1" transform="translate(0,230.76923076923077)"><line stroke="#000" x2="410" y1="0.5" y2="0.5" style="stroke: #ccc; fill: none;"></line></g><g class="tick" opacity="1" transform="translate(0,207.69230769230768)"><line stroke="#000" x2="410" y1="0.5" y2="0.5" style="stroke: #ccc; fill: none;"></line></g><g class="tick" opacity="1" transform="translate(0,184.6153846153846)"><line stroke="#000" x2="410" y1="0.5" y2="0.5" style="stroke: #ccc; fill: none;"></line></g><g class="tick" opacity="1" transform="translate(0,161.53846153846155)"><line stroke="#000" x2="410" y1="0.5" y2="0.5" style="stroke: #ccc; fill: none;"></line></g><g class="tick" opacity="1" transform="translate(0,138.46153846153842)"><line stroke="#000" x2="410" y1="0.5" y2="0.5" style="stroke: #ccc; fill: none;"></line></g><g class="tick" opacity="1" transform="translate(0,115.38461538461539)"><line stroke="#000" x2="410" y1="0.5" y2="0.5" style="stroke: #ccc; fill: none;"></line></g><g class="tick" opacity="1" transform="translate(0,92.30769230769232)"><line stroke="#000" x2="410" y1="0.5" y2="0.5" style="stroke: #ccc; fill: none;"></line></g><g class="tick" opacity="1" transform="translate(0,69.23076923076923)"><line stroke="#000" x2="410" y1="0.5" y2="0.5" style="stroke: #ccc; fill: none;"></line></g><g class="tick" opacity="1" transform="translate(0,46.15384615384616)"><line stroke="#000" x2="410" y1="0.5" y2="0.5" style="stroke: #ccc; fill: none;"></line></g><g class="tick" opacity="1" transform="translate(0,23.076923076923094)"><line stroke="#000" x2="410" y1="0.5" y2="0.5" style="stroke: #ccc; fill: none;"></line></g><g class="tick" opacity="1" transform="translate(0,0)"><line stroke="#000" x2="410" y1="0.5" y2="0.5" style="stroke: #ccc; fill: none;"></line></g></g><g class="lines"><path class="line" d="M3.1886603110888108,299.0066608905923L6.274460612142499,300L9.46312092323131,299.8162665360231L12.553207058036461,299.80725863965387L15.741867369125274,298.8273176356846L18.93052768021408,298.80814697755386L21.810607961197526,299.54463177789233L24.994982438534873,298.6909186115077L28.08078273958856,299.81945058814614L31.269443050677374,299.58836782354615L34.35524335173106,296.33722433425385L37.543903662819865,296.6572706733692L40.732563973908675,290.20492149844614L43.81836427496237,295.32557677901536L47.00702458605118,294.3142410116769L50.09711072085633,295.07284996624617L53.28577103194514,295.1390875964077L56.47443134303395,293.67229763023846L59.3545116240174,293.8214991087923L62.53888610135475,292.5784251727615L65.62468640240843,293.79112264543846L68.81334671349724,292.5920787958846L71.89914701455092,291.07334732944616L75.08780732563973,289.6908092775462L78.27646763672854,291.0522231686769L81.36226793778224,292.2216702812077L84.55092824887105,291.94580838124614L87.6410143836762,292.5704474834077L90.829674694765,292.77654283414614L94.01833500585383,291.0428413665L96.89841528683726,290.34955056043844L100.0827897641746,288.5370350896846L103.16859006522829,290.1672260780077L106.35725037631711,289.6836952817769L109.4430506773708,289.61138019145386L112.6317109884596,287.40574908212307L115.82037129954843,286.1847273515539L118.90617160060211,285.89574510288463L122.09483191169092,287.1486034322538L125.18491804649607,286.3711530137769L128.37357835758488,286.3422049619538L131.5622386686737,284.9181336283154L134.54517895969227,284.7095413491692L137.7295534370296,284.92309353676154L140.8153537380833,284.93312150875386L144.0040140491721,282.85531409065385L147.0898143502258,281.7840207182538L150.2784746613146,282.1911902928L153.46713497240341,281.48774494536923L156.55293527345708,280.45595577004616L159.7415955845459,278.9549827096846L162.83168171935105,279.1921406946L166.02034203043988,277.8758905210154L169.20900234152867,274.9738782072231L172.0890826225121,275.4647076034846L175.27345709984948,275.2335404282077L178.35925740090318,275.2772902805308L181.54791771199197,274.12018059203075L184.63371801304567,274.21827571204614L187.8223783241345,273.88253866961537L191.0110386352233,276.10532007613847L194.09683893627698,273.73449735846924L197.28549924736578,271.37784421525384L200.37558538217093,273.4159588640769L203.56424569325975,271.2569567952923L206.75290600434857,267.8748929367231L209.63298628533198,268.7022039049385L212.81736076266935,267.53923278203075L215.90316106372302,266.0815668116769L219.09182137481181,265.98517636061536L222.17762167586554,265.5791089938692L225.36628198695433,264.9680303967L228.55494229804313,266.9799163620692L231.64074259909685,262.79784699034616L234.82940291018565,262.3638401691231L237.9194890449908,264.8712464482385L241.1081493560796,262.3645436041385L244.29680966716842,259.04657948358465L247.17688994815185,256.4985730656231L250.3612644254892,259.3271788808308L253.44706472654292,257.1722475167769L256.6357250376317,257.6179586311615L259.72152533868535,252.76130836073077L262.91018564977423,255.3393470169923L266.098845960863,256.5055089987231L269.1846462619167,254.12270851453846L272.3733065730055,253.85004835684617L275.46339270781067,257.167547529L278.6520530188995,254.56473630683075L281.8407133299883,255.5785178991L284.8236536210069,253.2828369850154L288.0080280983442,251.10377480273075L291.09382839939786,253.41071712514616L294.28248871048675,251.25939422690772L297.3682890115404,250.72002069062307L300.5569493226292,251.47614669528463L303.745609633718,255.2682080898923L306.8314099347717,249.76315276361538L310.0200702458605,252.70014905658462L313.11015638066567,254.7937815094846L316.29881669175444,253.90526649955385L319.4874770028433,251.00761794426924L322.3675572838267,246.74148658518462L325.5519317611641,244.40642137456155L328.63773206221776,246.0372338108769L331.82639237330653,241.72375811455385L334.91219267436026,240.57915636087694L338.1008529854491,239.89048630294616L341.2895132965379,239.23093628365385L344.37531359759157,237.66755483427693L347.5639739086804,237.63958979487694L350.6540600434855,240.42822103317692L353.84272035457434,238.9732326036231L357.03138066566316,231.33348838622308L359.9114609466466,231.24902310556155L363.09583542398394,231.91109527636155L366.18163572503767,234.14711902310768L369.37029603612643,231.9505014279231L372.4560963371801,235.88876412041537L375.644756648269,241.20003507366923L378.83341695935775,240.73162210236924L381.9192172604114,238.74860858868462L385.10787757150024,235.60880106664615L388.19796370630536,242.17658638172307L391.38662401739424,238.87068370181538L394.575284328483,232.55359323553847L397.45536460946647,235.9940706822L400.6397390868038,230.8221269422154L403.7255393878575,234.38865547495385L406.91419969894633,232.93868251458463L410,236.54108505378463" data-legend="r" style="stroke: rgb(31, 119, 180); fill: none;"></path><path class="line" d="M3.1886603110888108,210.10281059783077L6.274460612142499,218.44877114586922L9.46312092323131,216.7687408133308L12.553207058036461,215.0010600774923L15.741867369125274,207.50467851403846L18.93052768021408,216.4378603148308L21.810607961197526,212.91082751792308L24.994982438534873,216.2187911360769L28.08078273958856,209.45446995207692L31.269443050677374,213.88654868374618L34.35524335173106,216.47435099446153L37.543903662819865,218.84991145324616L40.732563973908675,217.6931533106077L43.81836427496237,208.88076378796154L47.00702458605118,205.64059551269997L50.09711072085633,202.07289307880768L53.28577103194514,199.05849987417693L56.47443134303395,203.1654071772923L59.3545116240174,207.85588239216924L62.53888610135475,215.718740868L65.62468640240843,210.17228517955385L68.81334671349724,208.10848304086153L71.89914701455092,200.77682223881538L75.08780732563973,209.11155175786155L78.27646763672854,214.50323409053078L81.36226793778224,203.02530986104614L84.55092824887105,212.90157245335385L87.6410143836762,217.24211456838464L90.829674694765,215.83227710337695L94.01833500585383,216.0196834951846L96.89841528683726,214.0606895878846L100.0827897641746,219.30169030569232L103.16859006522829,218.85664137256154L106.35725037631711,219.14247653273077L109.4430506773708,215.7926852523L112.6317109884596,217.42813647355388L115.82037129954843,220.4267384218154L118.90617160060211,217.41856552991538L122.09483191169092,217.90324955736924L125.18491804649607,219.33675904243847L128.37357835758488,216.39054168004617L131.5622386686737,216.34566748377694L134.54517895969227,213.01084747354616L137.7295534370296,212.0484122374154L140.8153537380833,212.4002801551154L144.0040140491721,206.89116729228465L147.0898143502258,206.86189240903846L150.2784746613146,204.10640926885384L153.46713497240341,207.98012086525387L156.55293527345708,205.23912939606925L159.7415955845459,199.94249568717692L162.83168171935105,201.47418875238463L166.02034203043988,203.37335397406156L169.20900234152867,198.5060027830154L172.0890826225121,198.48787159864617L175.27345709984948,193.0362490502077L178.35925740090318,191.5653664761923L181.54791771199197,188.99722602048462L184.63371801304567,187.24566765417694L187.8223783241345,192.0234556195154L191.0110386352233,188.8529024599615L194.09683893627698,180.91223600236154L197.28549924736578,175.59216190596922L200.37558538217093,181.81160989486153L203.56424569325975,179.6544986294769L206.75290600434857,178.13769909279233L209.63298628533198,173.02701039646155L212.81736076266935,172.01216973505385L215.90316106372302,178.51437001825383L219.09182137481181,173.2855925685923L222.17762167586554,170.24673929550002L225.36628198695433,171.12737286491537L228.55494229804313,177.7716501173769L231.64074259909685,171.62393458389232L234.82940291018565,166.8705503154L237.9194890449908,165.2656667571L241.1081493560796,164.7067836868615L244.29680966716842,159.39417118273846L247.17688994815185,158.0121210351923L250.3612644254892,159.7341913185923L253.44706472654292,159.68587169856923L256.6357250376317,154.0625352517154L259.72152533868535,153.551774655L262.91018564977423,156.22661042261538L266.098845960863,156.61385502445384L269.1846462619167,144.1835389563923L272.3733065730055,139.53317798563847L275.46339270781067,143.0281864017L278.6520530188995,141.4621057635L281.8407133299883,136.35096494425383L284.8236536210069,137.51800569290768L288.0080280983442,138.33876820906156L291.09382839939786,138.66824859034617L294.28248871048675,136.83148766337695L297.3682890115404,130.9408369383231L300.5569493226292,134.41873531516157L303.745609633718,132.1543016802692L306.8314099347717,120.30666180828462L310.0200702458605,111.19796265816927L313.11015638066567,112.50652907162308L316.29881669175444,111.52258869636924L319.4874770028433,103.1158412678769L322.3675572838267,101.70878742436156L325.5519317611641,95.66305976940004L328.63773206221776,97.82630610180004L331.82639237330653,90.2393804699077L334.91219267436026,80.42817087593079L338.1008529854491,83.45917404060003L341.2895132965379,77.5571619148154L344.37531359759157,67.26309440746155L347.5639739086804,65.44793729896153L350.6540600434855,60.00536193886157L353.84272035457434,63.582824455130776L357.03138066566316,50.69520987754615L359.9114609466466,57.8063104359L363.09583542398394,56.06596169208461L366.18163572503767,54.5382721069154L369.37029603612643,45.503003349553865L372.4560963371801,39.0709594170462L375.644756648269,47.88225564918463L378.83341695935775,50.64906637806925L381.9192172604114,45.23990860624619L385.10787757150024,29.04878887043077L388.19796370630536,30.87183540696924L391.38662401739424,43.709481734400015L394.575284328483,29.6387279341846L397.45536460946647,19.85954185622313L400.6397390868038,9.535502793184662L403.7255393878575,16.61676919435388L406.91419969894633,8.091147326123064L410,6.33515619064616" data-legend="python" style="stroke: rgb(255, 127, 14); fill: none;"></path><path class="line" d="M3.1886603110888108,298.1788782994154L6.274460612142499,296.64857963614617L9.46312092323131,297.9789318961385L12.553207058036461,297.4943623152231L15.741867369125274,297.21487938475383L18.93052768021408,296.4244409326615L21.810607961197526,297.38163272277694L24.994982438534873,296.50911629734617L28.08078273958856,296.2084623509538L31.269443050677374,296.3776368471231L34.35524335173106,297.1990539026539L37.543903662819865,297.58185538073076L40.732563973908675,296.4061222764231L43.81836427496237,295.51767636343845L47.00702458605118,292.9230446634692L50.09711072085633,293.77947308238464L53.28577103194514,295.1907994305L56.47443134303395,294.24282817176925L59.3545116240174,294.53269345599233L62.53888610135475,291.3724192633385L65.62468640240843,290.75368624176923L68.81334671349724,293.9238399112385L71.89914701455092,294.2014905729923L75.08780732563973,294.90004699243843L78.27646763672854,293.7441390798L81.36226793778224,294.11173170821536L84.55092824887105,294.8080417664308L87.6410143836762,294.0363681593308L90.829674694765,294.8568984979154L94.01833500585383,291.90517651444617L96.89841528683726,290.14373528803844L100.0827897641746,290.8007298408923L103.16859006522829,292.9929998920385L106.35725037631711,292.72746987205386L109.4430506773708,293.45562716907693L112.6317109884596,294.45509089283075L115.82037129954843,293.9727486975L118.90617160060211,290.89242155598464L122.09483191169092,290.84760737856925L125.18491804649607,291.36543733283077L128.37357835758488,290.89480330797693L131.5622386686737,289.6613250179308L134.54517895969227,290.06377602826154L137.7295534370296,288.9103745848846L140.8153537380833,290.74121525822306L144.0040140491721,290.78583034206923L147.0898143502258,290.9406295209231L150.2784746613146,290.24755658891536L153.46713497240341,290.3421914667923L156.55293527345708,288.36297050976924L159.7415955845459,286.79222208634616L162.83168171935105,288.51214986666923L166.02034203043988,289.36931421597694L169.20900234152867,287.8380518571231L172.0890826225121,286.79377311200767L175.27345709984948,285.8400750905308L178.35925740090318,285.9121989308077L181.54791771199197,286.89298309603845L184.63371801304567,287.0114304623077L187.8223783241345,287.6114685757846L191.0110386352233,287.50359671229234L194.09683893627698,286.0866524286L197.28549924736578,284.2597720581923L200.37558538217093,285.26818442545385L203.56424569325975,286.4021889714L206.75290600434857,284.7763979871923L209.63298628533198,284.1740281414615L212.81736076266935,283.2201348927923L215.90316106372302,283.5819656347154L219.09182137481181,285.3676880853L222.17762167586554,285.5411491022538L225.36628198695433,286.9861157096308L228.55494229804313,285.10424258884615L231.64074259909685,283.5500683971L234.82940291018565,282.9027066798462L237.9194890449908,285.01469626968463L241.1081493560796,285.8762881348385L244.29680966716842,283.59941772214614L247.17688994815185,283.1030531286923L250.3612644254892,281.3506771089L253.44706472654292,282.56503242904614L256.6357250376317,284.9373929630077L259.72152533868535,286.63167504323076L262.91018564977423,286.91926064501536L266.098845960863,287.73465759145387L269.1846462619167,286.81772631018464L272.3733065730055,285.40856662534617L275.46339270781067,288.20497314475386L278.6520530188995,288.05343882083076L281.8407133299883,286.7866371725308L284.8236536210069,285.67585387763074L288.0080280983442,286.76953367314616L291.09382839939786,286.01954572698463L294.28248871048675,287.49112645236926L297.3682890115404,288.1911538942154L300.5569493226292,288.04780876495386L303.745609633718,288.5126160521308L306.8314099347717,288.12896418046154L310.0200702458605,289.69496386615384L313.11015638066567,289.5105545572846L316.29881669175444,289.6093091482385L319.4874770028433,288.74606808297693L322.3675572838267,287.57224568023844L325.5519317611641,287.6155492215923L328.63773206221776,287.5920484569923L331.82639237330653,289.5842284387154L334.91219267436026,290.56340719093845L338.1008529854491,290.55104095596926L341.2895132965379,291.7380419971154L344.37531359759157,290.4208895564077L347.5639739086804,289.6844343471462L350.6540600434855,291.95709172266925L353.84272035457434,291.60049238494616L357.03138066566316,291.8243318401154L359.9114609466466,292.3550311016538L363.09583542398394,291.3406345724077L366.18163572503767,292.6260297453923L369.37029603612643,293.0610885110308L372.4560963371801,293.11776241666155L375.644756648269,294.01684567416925L378.83341695935775,293.08254964405387L381.9192172604114,292.42988542303846L385.10787757150024,292.0831589265923L388.19796370630536,292.50606127398464L391.38662401739424,293.53414018883075L394.575284328483,293.7775515807692L397.45536460946647,293.1289572976154L400.6397390868038,292.15588459174614L403.7255393878575,292.50453501657694L406.91419969894633,293.6201124987L410,293.5708797441" data-legend="matlab" style="stroke: rgb(44, 160, 44); fill: none;"></path></g></g><g transform="translate(20, 150)"><text transform="rotate(-90)" x="-50" y="0" dy="1em" class="axis-label y-axis-label" style="text-anchor: middle; font-weight: bold;">% of Stack Overflow questions that month</text></g><g class="legend" transform="translate(530, 30)" style="font-size: 12px;"><text class="legend-title" style="font-weight: bold;">Tag</text><g class="legend-items" transform="translate(0,20)"><text y="0em" x="1em">python</text><text y="1em" x="1em">r</text><text y="2em" x="1em">matlab</text><circle cy="-0.25em" cx="0" r="0.4em" style="fill: rgb(255, 127, 14);"></circle><circle cy="0.75em" cx="0" r="0.4em" style="fill: rgb(31, 119, 180);"></circle><circle cy="1.75em" cx="0" r="0.4em" style="fill: rgb(44, 160, 44);"></circle></g><rect class="legend-box"></rect></g></svg>
        